<?xml version="1.0" encoding="UTF-8"?>
<svg width="1084.6" height="75.603" preserveAspectRatio="xMinYMin" version="1.1" viewBox="0 0 1084.6 75.603" xmlns="http://www.w3.org/2000/svg" xmlns:cc="http://creativecommons.org/ns#" xmlns:dc="http://purl.org/dc/elements/1.1/" xmlns:rdf="http://www.w3.org/1999/02/22-rdf-syntax-ns#">
 <title>Symbol of Natural Resources Canada - Symbole de Ressources naturelles Canada</title>
 <style>.fip_text {fill:#000;}.fip_flag {fill:#F00;}</style>
 <path class="fip_flag" d="m0 0h36.84v75.01h-36.84zm118.54 0h36.84v75.01h-36.84zm-45.96 15.61 5.26-10.71 5.22 10.32c0.65 1.09 1.18 1 2.22 0.48l4.49-2.22-2.92 14.41c-0.61 2.83 1 3.66 2.75 1.74l6.4-6.84 1.7 3.87c0.57 1.17 1.43 1 2.57 0.79l6.61-1.39-2.22 8.35v0.18c-0.26 1.09-0.78 2 0.44 2.53l2.35 1.17-13.68 11.53c-1.39 1.43-0.91 1.87-0.39 3.48l1.26 3.87-12.71-2.3c-1.57-0.39-2.66-0.39-2.7 0.87l0.52 14.58h-3.82l0.52-14.54c0-1.43-1.09-1.39-3.66-0.86l-11.79 2.26 1.52-3.87c0.52-1.48 0.66-2.48-0.52-3.48l-13.89-11.37 2.57-1.57c0.74-0.57 0.78-1.17 0.39-2.44l-2.61-8.45 6.7 1.43c1.87 0.44 2.39 0 2.87-1l1.87-3.83 6.62 7.4c1.17 1.39 2.83 0.48 2.31-1.52l-3.18-15.62 4.92 2.83c0.78 0.48 1.61 0.61 2.09-0.3"/>
 <metadata>
  <rdf:RDF>
   <cc:Work rdf:about="">
    <dc:title>Symbol of Natural Resources Canada - Symbole de Ressources naturelles Canada</dc:title>
   </cc:Work>
  </rdf:RDF>
 </metadata>
 <g aria-label="Natural Resources Canada">
  <path d="m220.22 0.85281h5.6901l14.053 22.674h0.0862v-22.674h5.1297v30.778h-5.6901l-14.01-22.631h-0.12932v22.631h-5.1297z"/>
  <path d="m269.53 26.674q0 0.90524 0.21554 1.2932 0.25864 0.38796 0.94834 0.38796 0.21554 0 0.51729 0 0.30174 0 0.6897-0.08621v3.4054q-0.25864 0.08621-0.6897 0.17243-0.38797 0.12932-0.81903 0.21553-0.43107 0.08621-0.86214 0.12932-0.43106 0.04311-0.73281 0.04311-1.5087 0-2.5002-0.60349-0.99145-0.60349-1.2932-2.1122-1.4656 1.4225-3.621 2.0691-2.1122 0.6466-4.0951 0.6466-1.5087 0-2.8882-0.43107-1.3794-0.38796-2.4571-1.1639-1.0346-0.81903-1.6812-2.026-0.6035-1.2501-0.6035-2.8881 0-2.0691 0.73282-3.3623 0.77592-1.2932 1.9829-2.026 1.2501-0.73281 2.7588-1.0346 1.5518-0.34485 3.1037-0.51728 1.3363-0.25864 2.5433-0.34485 1.207-0.12932 2.1122-0.38796 0.94835-0.25864 1.4656-0.77592 0.56039-0.56039 0.56039-1.6381 0-0.94835-0.47418-1.5518-0.43106-0.60349-1.1208-0.90524-0.6466-0.34485-1.4656-0.43107-0.81903-0.12932-1.5518-0.12932-2.0691 0-3.4054 0.86213t-1.5087 2.6726h-4.9142q0.12932-2.1553 1.0346-3.5779t2.2847-2.2847q1.4225-0.86213 3.1899-1.207 1.7674-0.34485 3.621-0.34485 1.638 0 3.233 0.34485t2.845 1.1208q1.2932 0.77592 2.0691 2.026 0.77592 1.207 0.77592 2.9744zm-4.9142-6.2074q-1.1208 0.73281-2.7588 0.90524-1.638 0.12932-3.2761 0.43107-0.77592 0.12932-1.5087 0.38796-0.73282 0.21553-1.2932 0.6466-0.56039 0.38796-0.90524 1.0777-0.30175 0.6466-0.30175 1.5949 0 0.81903 0.47417 1.3794 0.47418 0.56039 1.1208 0.90524 0.6897 0.30175 1.4656 0.43107 0.81903 0.12932 1.4656 0.12932 0.81903 0 1.7674-0.21553 0.94834-0.21553 1.7674-0.73281 0.86214-0.51728 1.4225-1.2932 0.56039-0.81903 0.56039-1.9829z"/>
  <path d="m272.59 9.3448h3.7072v-6.6815h4.9142v6.6815h4.44v3.6641h-4.44v11.897q0 0.77592 0.0431 1.3363 0.0862 0.56039 0.30174 0.94835 0.25864 0.38796 0.73282 0.60349 0.47417 0.17243 1.2932 0.17243 0.51728 0 1.0346 0 0.51728-0.04311 1.0346-0.17243v3.7934q-0.81903 0.08621-1.595 0.17243-0.77592 0.08621-1.595 0.08621-1.9398 0-3.1468-0.34485-1.1639-0.38796-1.8536-1.0777-0.6466-0.73281-0.90524-1.8105-0.21554-1.0777-0.25864-2.4571v-13.148h-3.7072z"/>
  <path d="m308.76 31.631h-4.828v-3.1037h-0.0862q-0.90524 1.6812-2.7157 2.7157-1.7674 0.99145-3.621 0.99145-4.3969 0-6.3798-2.1553-1.9398-2.1984-1.9398-6.5953v-14.139h4.9142v13.665q0 2.9313 1.1208 4.1382 1.1208 1.207 3.1468 1.207 1.5518 0 2.5864-0.47417t1.6812-1.2501q0.6466-0.81903 0.90524-1.9398 0.30175-1.1208 0.30175-2.414v-12.932h4.9142z"/>
  <path d="m313.93 9.3448h4.6124v4.3107h0.0862q0.21553-0.90524 0.81903-1.7674 0.6466-0.86213 1.5087-1.5518 0.90524-0.73281 1.9829-1.1639 1.0777-0.43107 2.1984-0.43107 0.86213 0 1.1639 0.043107 0.34485 0.043107 0.68971 0.086213v4.7417q-0.51728-0.08621-1.0777-0.12932-0.51728-0.08621-1.0346-0.08621-1.2501 0-2.3709 0.51728-1.0777 0.47417-1.8967 1.4656-0.81903 0.94835-1.2932 2.3709-0.47417 1.4225-0.47417 3.2761v10.604h-4.9142z"/>
  <path d="m347.77 26.674q0 0.90524 0.21553 1.2932 0.25864 0.38796 0.94835 0.38796 0.21553 0 0.51728 0t0.68971-0.08621v3.4054q-0.25864 0.08621-0.68971 0.17243-0.38796 0.12932-0.81903 0.21553-0.43106 0.08621-0.86213 0.12932t-0.73281 0.04311q-1.5087 0-2.5002-0.60349-0.99146-0.60349-1.2932-2.1122-1.4656 1.4225-3.621 2.0691-2.1122 0.6466-4.0951 0.6466-1.5087 0-2.8882-0.43107-1.3794-0.38796-2.4571-1.1639-1.0346-0.81903-1.6812-2.026-0.60349-1.2501-0.60349-2.8881 0-2.0691 0.73281-3.3623 0.77592-1.2932 1.9829-2.026 1.2501-0.73281 2.7588-1.0346 1.5518-0.34485 3.1037-0.51728 1.3363-0.25864 2.5433-0.34485 1.207-0.12932 2.1122-0.38796 0.94834-0.25864 1.4656-0.77592 0.56038-0.56039 0.56038-1.6381 0-0.94835-0.47417-1.5518-0.43107-0.60349-1.1208-0.90524-0.6466-0.34485-1.4656-0.43107-0.81903-0.12932-1.5518-0.12932-2.0691 0-3.4054 0.86213t-1.5087 2.6726h-4.9142q0.12932-2.1553 1.0346-3.5779t2.2846-2.2847q1.4225-0.86213 3.1899-1.207 1.7674-0.34485 3.621-0.34485 1.6381 0 3.233 0.34485 1.595 0.34485 2.845 1.1208 1.2932 0.77592 2.0691 2.026 0.77592 1.207 0.77592 2.9744zm-4.9142-6.2074q-1.1208 0.73281-2.7588 0.90524-1.6381 0.12932-3.2761 0.43107-0.77592 0.12932-1.5087 0.38796-0.73281 0.21553-1.2932 0.6466-0.56039 0.38796-0.90524 1.0777-0.30175 0.6466-0.30175 1.5949 0 0.81903 0.47418 1.3794 0.47417 0.56039 1.1208 0.90524 0.68971 0.30175 1.4656 0.43107 0.81903 0.12932 1.4656 0.12932 0.81903 0 1.7674-0.21553 0.94835-0.21553 1.7674-0.73281 0.86213-0.51728 1.4225-1.2932 0.56039-0.81903 0.56039-1.9829z"/>
  <path d="m353.2 0.85281h4.9142v30.778h-4.9142z"/>
  <path d="m376.14 0.85281h14.699q5.0866 0 7.6299 2.1984t2.5433 6.1212q0 2.1984-0.6466 3.6641-0.6466 1.4225-1.5087 2.3278-0.86213 0.86213-1.7243 1.2501-0.81902 0.38796-1.207 0.51728v0.08621q0.6897 0.08621 1.4656 0.43107 0.81903 0.34485 1.5087 1.1208 0.68971 0.73281 1.1208 1.9398 0.47418 1.207 0.47418 3.0175 0 2.7157 0.38796 4.9573 0.43106 2.1984 1.2932 3.1468h-5.7763q-0.60349-0.99146-0.73281-2.1984-0.0862-1.207-0.0862-2.3278 0-2.1122-0.25864-3.621-0.25864-1.5518-0.94834-2.5433-0.68971-1.0346-1.8967-1.5087-1.1639-0.47417-3.0175-0.47417h-7.9316v12.673h-5.3883zm5.3883 14.01h8.8369q2.5864 0 3.9227-1.207 1.3363-1.2501 1.3363-3.7072 0-1.4656-0.43107-2.3709-0.43106-0.94835-1.207-1.4656-0.73281-0.51728-1.7243-0.68971-0.94835-0.17243-1.9829-0.17243h-8.7507z"/>
  <path d="m421.1 18.527q-0.0862-1.1639-0.51728-2.2415-0.38796-1.0777-1.1208-1.8536-0.6897-0.81903-1.7243-1.2932-0.99146-0.51728-2.2416-0.51728-1.2932 0-2.3709 0.47417-1.0346 0.43107-1.8105 1.2501-0.73282 0.77592-1.207 1.8536-0.43107 1.0777-0.47417 2.3278zm-11.466 3.233q0 1.2932 0.34485 2.5002 0.38796 1.207 1.1208 2.1122 0.73281 0.90524 1.8536 1.4656 1.1208 0.51728 2.6726 0.51728 2.1553 0 3.4485-0.90524 1.3363-0.94835 1.9829-2.8019h4.6555q-0.38796 1.8105-1.3363 3.233t-2.2847 2.414q-1.3363 0.94835-3.0175 1.4225-1.638 0.51728-3.4485 0.51728-2.6295 0-4.6555-0.86213t-3.4485-2.414q-1.3794-1.5518-2.1122-3.7072-0.68971-2.1553-0.68971-4.7417 0-2.3709 0.73282-4.4831 0.77592-2.1553 2.1553-3.7503 1.4225-1.6381 3.4054-2.5864 1.9829-0.94835 4.4831-0.94835 2.6295 0 4.6986 1.1208 2.1122 1.0777 3.4916 2.8881 1.3794 1.8105 1.9829 4.1814 0.6466 2.3278 0.34485 4.828z"/>
  <path d="m433.47 24.475q0.21554 2.1553 1.6381 3.0175t3.4054 0.86213q0.6897 0 1.5518-0.08621 0.90524-0.12932 1.6812-0.43107t1.2501-0.86213q0.51728-0.60349 0.47418-1.5518-0.0431-0.94835-0.68971-1.5518-0.6466-0.60349-1.6812-0.94835-0.99146-0.38796-2.2847-0.6466-1.2932-0.25864-2.6295-0.56039-1.3794-0.30175-2.6726-0.73281-1.2501-0.43107-2.2847-1.1639-0.99145-0.73281-1.5949-1.8536-0.6035-1.1639-0.6035-2.845 0-1.8105 0.86214-3.0175 0.90524-1.2501 2.2416-1.9829 1.3794-0.77592 3.0175-1.0777 1.6812-0.30175 3.1899-0.30175 1.7243 0 3.2761 0.38796 1.595 0.34485 2.845 1.1639 1.2932 0.81903 2.1122 2.1553 0.86213 1.2932 1.0777 3.1468h-5.1297q-0.34485-1.7674-1.638-2.3709-1.2501-0.60349-2.8882-0.60349-0.51728 0-1.2501 0.08621-0.68971 0.08621-1.3363 0.34485-0.60349 0.21553-1.0346 0.68971-0.43106 0.43107-0.43106 1.1639 0 0.90524 0.60349 1.4656 0.6466 0.56039 1.638 0.94835 1.0346 0.34485 2.3278 0.60349t2.6726 0.56039q1.3363 0.30175 2.6295 0.73281t2.2847 1.1639q1.0346 0.73281 1.638 1.8536 0.6466 1.1208 0.6466 2.7588 0 1.9829-0.90524 3.3623t-2.3709 2.2415q-1.4225 0.86213-3.1899 1.2501-1.7674 0.38796-3.4916 0.38796-2.1122 0-3.9227-0.47417-1.7674-0.47417-3.1037-1.4225-1.2932-0.99146-2.0691-2.414-0.73281-1.4656-0.77592-3.4485z"/>
  <path d="m462.35 32.234q-2.6726 0-4.7848-0.86213-2.0691-0.90524-3.5348-2.4571-1.4225-1.5518-2.1984-3.7072-0.73281-2.1553-0.73281-4.7417 0-2.5433 0.73281-4.6986 0.77593-2.1553 2.1984-3.7072 1.4656-1.5518 3.5348-2.414 2.1122-0.90524 4.7848-0.90524t4.7417 0.90524q2.1122 0.86213 3.5348 2.414 1.4656 1.5518 2.1984 3.7072 0.77592 2.1553 0.77592 4.6986 0 2.5864-0.77592 4.7417-0.73282 2.1553-2.1984 3.7072-1.4225 1.5518-3.5348 2.4571-2.0691 0.86213-4.7417 0.86213zm0-3.8796q1.638 0 2.845-0.68971t1.9829-1.8105q0.77592-1.1208 1.1208-2.5002 0.38796-1.4225 0.38796-2.8881 0-1.4225-0.38796-2.845-0.34485-1.4225-1.1208-2.5002-0.77592-1.1208-1.9829-1.8105t-2.845-0.68971q-1.6381 0-2.845 0.68971-1.207 0.68971-1.9829 1.8105-0.77592 1.0777-1.1639 2.5002-0.34486 1.4225-0.34486 2.845 0 1.4656 0.34486 2.8881 0.38796 1.3794 1.1639 2.5002 0.77592 1.1208 1.9829 1.8105 1.207 0.68971 2.845 0.68971z"/>
  <path d="m497.27 31.631h-4.828v-3.1037h-0.0862q-0.90524 1.6812-2.7157 2.7157-1.7674 0.99145-3.621 0.99145-4.3969 0-6.3798-2.1553-1.9398-2.1984-1.9398-6.5953v-14.139h4.9142v13.665q0 2.9313 1.1208 4.1382 1.1208 1.207 3.1468 1.207 1.5518 0 2.5864-0.47417t1.6812-1.2501q0.6466-0.81903 0.90524-1.9398 0.30175-1.1208 0.30175-2.414v-12.932h4.9142z"/>
  <path d="m502.44 9.3448h4.6124v4.3107h0.0862q0.21554-0.90524 0.81903-1.7674 0.6466-0.86213 1.5087-1.5518 0.90524-0.73281 1.9829-1.1639 1.0777-0.43107 2.1984-0.43107 0.86213 0 1.1639 0.043107 0.34485 0.043107 0.6897 0.086213v4.7417q-0.51728-0.08621-1.0777-0.12932-0.51728-0.08621-1.0346-0.08621-1.2501 0-2.3709 0.51728-1.0777 0.47417-1.8967 1.4656-0.81903 0.94835-1.2932 2.3709t-0.47417 3.2761v10.604h-4.9142z"/>
  <path d="m531.88 16.802q-0.30175-2.0691-1.6812-3.1037-1.3363-1.0777-3.4054-1.0777-0.94834 0-2.026 0.34485-1.0777 0.30175-1.9829 1.207-0.90524 0.86213-1.5087 2.4571-0.6035 1.5518-0.6035 4.0951 0 1.3794 0.30175 2.7588 0.34485 1.3794 1.0346 2.4571 0.73281 1.0777 1.8536 1.7674 1.1208 0.6466 2.7157 0.6466 2.1553 0 3.5348-1.3363 1.4225-1.3363 1.7674-3.7503h4.9142q-0.68971 4.3538-3.3192 6.6815-2.5864 2.2847-6.8971 2.2847-2.6295 0-4.6555-0.86213-1.9829-0.90524-3.3623-2.414-1.3794-1.5518-2.1122-3.6641-0.68971-2.1122-0.68971-4.5693 0-2.5002 0.68971-4.6986 0.6897-2.1984 2.0691-3.7934 1.3794-1.6381 3.4054-2.5433 2.0691-0.94835 4.828-0.94835 1.9398 0 3.6641 0.51728 1.7674 0.47417 3.1037 1.4656 1.3794 0.99145 2.2416 2.5002 0.86213 1.5087 1.0346 3.5779z"/>
  <path d="m556.11 18.527q-0.0862-1.1639-0.51728-2.2415-0.38796-1.0777-1.1208-1.8536-0.68971-0.81903-1.7243-1.2932-0.99146-0.51728-2.2416-0.51728-1.2932 0-2.3709 0.47417-1.0346 0.43107-1.8105 1.2501-0.73281 0.77592-1.207 1.8536-0.43106 1.0777-0.47417 2.3278zm-11.466 3.233q0 1.2932 0.34485 2.5002 0.38796 1.207 1.1208 2.1122 0.73281 0.90524 1.8536 1.4656 1.1208 0.51728 2.6726 0.51728 2.1553 0 3.4485-0.90524 1.3363-0.94835 1.9829-2.8019h4.6555q-0.38796 1.8105-1.3363 3.233t-2.2846 2.414q-1.3363 0.94835-3.0175 1.4225-1.6381 0.51728-3.4485 0.51728-2.6295 0-4.6555-0.86213t-3.4485-2.414q-1.3794-1.5518-2.1122-3.7072-0.68971-2.1553-0.68971-4.7417 0-2.3709 0.73282-4.4831 0.77592-2.1553 2.1553-3.7503 1.4225-1.6381 3.4054-2.5864 1.9829-0.94835 4.4831-0.94835 2.6295 0 4.6986 1.1208 2.1122 1.0777 3.4916 2.8881 1.3794 1.8105 1.9829 4.1814 0.6466 2.3278 0.34485 4.828z"/>
  <path d="m568.48 24.475q0.21554 2.1553 1.6381 3.0175t3.4054 0.86213q0.68971 0 1.5518-0.08621 0.90524-0.12932 1.6812-0.43107t1.2501-0.86213q0.51729-0.60349 0.47418-1.5518-0.0431-0.94835-0.68971-1.5518-0.6466-0.60349-1.6812-0.94835-0.99145-0.38796-2.2847-0.6466-1.2932-0.25864-2.6295-0.56039-1.3794-0.30175-2.6726-0.73281-1.2501-0.43107-2.2846-1.1639-0.99146-0.73281-1.595-1.8536-0.6035-1.1639-0.6035-2.845 0-1.8105 0.86214-3.0175 0.90524-1.2501 2.2416-1.9829 1.3794-0.77592 3.0175-1.0777 1.6812-0.30175 3.1899-0.30175 1.7243 0 3.2761 0.38796 1.595 0.34485 2.845 1.1639 1.2932 0.81903 2.1122 2.1553 0.86214 1.2932 1.0777 3.1468h-5.1297q-0.34485-1.7674-1.638-2.3709-1.2501-0.60349-2.8882-0.60349-0.51728 0-1.2501 0.08621-0.6897 0.08621-1.3363 0.34485-0.6035 0.21553-1.0346 0.68971-0.43106 0.43107-0.43106 1.1639 0 0.90524 0.60349 1.4656 0.6466 0.56039 1.6381 0.94835 1.0346 0.34485 2.3278 0.60349t2.6726 0.56039q1.3363 0.30175 2.6295 0.73281t2.2847 1.1639q1.0346 0.73281 1.638 1.8536 0.6466 1.1208 0.6466 2.7588 0 1.9829-0.90524 3.3623t-2.3709 2.2415q-1.4225 0.86213-3.1899 1.2501-1.7674 0.38796-3.4916 0.38796-2.1122 0-3.9227-0.47417-1.7674-0.47417-3.1037-1.4225-1.2932-0.99146-2.0691-2.414-0.73281-1.4656-0.77592-3.4485z"/>
  <path d="m241.21 53.877q-0.34486-1.3363-0.94835-2.4571t-1.5518-1.9398q-0.94835-0.81903-2.2416-1.2501-1.2501-0.47417-2.9313-0.47417-2.4571 0-4.2676 0.99145-1.7674 0.99145-2.8882 2.6726-1.1208 1.6381-1.6812 3.7503-0.51728 2.1122-0.51728 4.3107t0.51728 4.3107q0.56039 2.1122 1.6812 3.7934 1.1208 1.6381 2.8882 2.6295 1.8105 0.99146 4.2676 0.99146 1.8105 0 3.1899-0.60349 1.3794-0.6466 2.3709-1.7243 0.99145-1.1208 1.5518-2.5864 0.56039-1.4656 0.73281-3.1468h5.259q-0.17243 2.7588-1.207 5.0435-0.99145 2.2847-2.7157 3.9658-1.7243 1.6381-4.052 2.5433-2.3278 0.90524-5.1297 0.90524-3.4485 0-6.2074-1.2501-2.7157-1.2932-4.6124-3.4916t-2.9312-5.1297q-0.99146-2.9313-0.99146-6.2505 0-3.2761 0.99146-6.2074 1.0346-2.9313 2.9312-5.1297 1.8967-2.1984 4.6124-3.4916 2.7588-1.2932 6.2074-1.2932 2.5864 0 4.8711 0.73281 2.2847 0.68971 4.0089 2.0691 1.7674 1.3363 2.845 3.2761 1.0777 1.9398 1.3363 4.44z"/>
  <path d="m269.53 69.913q0 0.90524 0.21554 1.2932 0.25864 0.38796 0.94834 0.38796 0.21554 0 0.51729 0 0.30174 0 0.6897-0.08621v3.4054q-0.25864 0.08621-0.6897 0.17243-0.38797 0.12932-0.81903 0.21553-0.43107 0.08621-0.86214 0.12932-0.43106 0.04311-0.73281 0.04311-1.5087 0-2.5002-0.60349-0.99145-0.60349-1.2932-2.1122-1.4656 1.4225-3.621 2.0691-2.1122 0.6466-4.0951 0.6466-1.5087 0-2.8882-0.43107-1.3794-0.38796-2.4571-1.1639-1.0346-0.81903-1.6812-2.026-0.6035-1.2501-0.6035-2.8881 0-2.0691 0.73282-3.3623 0.77592-1.2932 1.9829-2.026 1.2501-0.73281 2.7588-1.0346 1.5518-0.34485 3.1037-0.51728 1.3363-0.25864 2.5433-0.34485 1.207-0.12932 2.1122-0.38796 0.94835-0.25864 1.4656-0.77592 0.56039-0.56039 0.56039-1.6381 0-0.94835-0.47418-1.5518-0.43106-0.60349-1.1208-0.90524-0.6466-0.34485-1.4656-0.43107-0.81903-0.12932-1.5518-0.12932-2.0691 0-3.4054 0.86213t-1.5087 2.6726h-4.9142q0.12932-2.1553 1.0346-3.5779t2.2847-2.2847q1.4225-0.86213 3.1899-1.207 1.7674-0.34485 3.621-0.34485 1.638 0 3.233 0.34485t2.845 1.1208q1.2932 0.77592 2.0691 2.026 0.77592 1.207 0.77592 2.9744zm-4.9142-6.2074q-1.1208 0.73281-2.7588 0.90524-1.638 0.12932-3.2761 0.43107-0.77592 0.12932-1.5087 0.38796-0.73282 0.21553-1.2932 0.6466-0.56039 0.38796-0.90524 1.0777-0.30175 0.6466-0.30175 1.5949 0 0.81903 0.47417 1.3794 0.47418 0.56039 1.1208 0.90524 0.6897 0.30175 1.4656 0.43107 0.81903 0.12932 1.4656 0.12932 0.81903 0 1.7674-0.21553 0.94834-0.21553 1.7674-0.73281 0.86214-0.51728 1.4225-1.2932 0.56039-0.81903 0.56039-1.9829z"/>
  <path d="m274.83 52.584h4.6555v3.2761l0.0862 0.08621q1.1208-1.8536 2.9312-2.8881 1.8105-1.0777 4.0089-1.0777 3.6641 0 5.7763 1.8967t2.1122 5.6901v15.303h-4.9141v-14.01q-0.0862-2.6295-1.1208-3.7934-1.0346-1.207-3.233-1.207-1.2501 0-2.2416 0.47417-0.99145 0.43107-1.6812 1.2501-0.68971 0.77592-1.0777 1.8536-0.38796 1.0777-0.38796 2.2847v13.148h-4.9142z"/>
  <path d="m318.24 69.913q0 0.90524 0.21553 1.2932 0.25864 0.38796 0.94835 0.38796 0.21554 0 0.51728 0 0.30175 0 0.68971-0.08621v3.4054q-0.25864 0.08621-0.68971 0.17243-0.38796 0.12932-0.81903 0.21553-0.43106 0.08621-0.86213 0.12932t-0.73281 0.04311q-1.5087 0-2.5002-0.60349-0.99146-0.60349-1.2932-2.1122-1.4656 1.4225-3.621 2.0691-2.1122 0.6466-4.0951 0.6466-1.5087 0-2.8882-0.43107-1.3794-0.38796-2.4571-1.1639-1.0346-0.81903-1.6812-2.026-0.6035-1.2501-0.6035-2.8881 0-2.0691 0.73282-3.3623 0.77592-1.2932 1.9829-2.026 1.2501-0.73281 2.7588-1.0346 1.5518-0.34485 3.1037-0.51728 1.3363-0.25864 2.5433-0.34485 1.207-0.12932 2.1122-0.38796 0.94835-0.25864 1.4656-0.77592 0.56038-0.56039 0.56038-1.6381 0-0.94835-0.47417-1.5518-0.43107-0.60349-1.1208-0.90524-0.6466-0.34485-1.4656-0.43107-0.81903-0.12932-1.5518-0.12932-2.0691 0-3.4054 0.86213t-1.5087 2.6726h-4.9142q0.12932-2.1553 1.0346-3.5779t2.2847-2.2847q1.4225-0.86213 3.1899-1.207 1.7674-0.34485 3.621-0.34485 1.6381 0 3.233 0.34485t2.845 1.1208q1.2932 0.77592 2.0691 2.026 0.77592 1.207 0.77592 2.9744zm-4.9142-6.2074q-1.1208 0.73281-2.7588 0.90524-1.6381 0.12932-3.2761 0.43107-0.77592 0.12932-1.5087 0.38796-0.73281 0.21553-1.2932 0.6466-0.56038 0.38796-0.90524 1.0777-0.30174 0.6466-0.30174 1.5949 0 0.81903 0.47417 1.3794t1.1208 0.90524q0.68971 0.30175 1.4656 0.43107 0.81903 0.12932 1.4656 0.12932 0.81903 0 1.7674-0.21553 0.94835-0.21553 1.7674-0.73281 0.86213-0.51728 1.4225-1.2932 0.56039-0.81903 0.56039-1.9829z"/>
  <path d="m344.54 74.87h-4.6555v-3.0175h-0.0862q-0.99145 1.9398-2.8882 2.8019-1.8967 0.81903-4.0089 0.81903-2.6295 0-4.6124-0.90524-1.9398-0.94835-3.233-2.5433t-1.9398-3.7503q-0.6466-2.1984-0.6466-4.6986 0-3.0175 0.81902-5.2159 0.81903-2.1984 2.1553-3.621 1.3794-1.4225 3.1037-2.0691 1.7674-0.68971 3.5779-0.68971 1.0346 0 2.1122 0.21553 1.0777 0.17243 2.0691 0.60349 0.99145 0.43107 1.8105 1.1208 0.86213 0.6466 1.4225 1.5518h0.0862v-11.38h4.9142zm-17.156-10.906q0 1.4225 0.34486 2.8019 0.38796 1.3794 1.1208 2.4571 0.77592 1.0777 1.9398 1.7243 1.1639 0.6466 2.7588 0.6466 1.638 0 2.8019-0.68971 1.207-0.68971 1.9398-1.8105 0.77592-1.1208 1.1208-2.5002 0.38796-1.4225 0.38796-2.8881 0-3.7072-1.6812-5.7763-1.638-2.0691-4.4831-2.0691-1.7243 0-2.9312 0.73281-1.1639 0.68971-1.9398 1.8536-0.73282 1.1208-1.0777 2.5864-0.30175 1.4225-0.30175 2.9313z"/>
  <path d="m368.55 69.913q0 0.90524 0.21553 1.2932 0.25864 0.38796 0.94835 0.38796 0.21553 0 0.51728 0t0.68971-0.08621v3.4054q-0.25864 0.08621-0.68971 0.17243-0.38796 0.12932-0.81903 0.21553-0.43106 0.08621-0.86213 0.12932t-0.73281 0.04311q-1.5087 0-2.5002-0.60349-0.99146-0.60349-1.2932-2.1122-1.4656 1.4225-3.621 2.0691-2.1122 0.6466-4.0951 0.6466-1.5087 0-2.8882-0.43107-1.3794-0.38796-2.4571-1.1639-1.0346-0.81903-1.6812-2.026-0.60349-1.2501-0.60349-2.8881 0-2.0691 0.73281-3.3623 0.77593-1.2932 1.9829-2.026 1.2501-0.73281 2.7588-1.0346 1.5518-0.34485 3.1037-0.51728 1.3363-0.25864 2.5433-0.34485 1.207-0.12932 2.1122-0.38796 0.94835-0.25864 1.4656-0.77592 0.56038-0.56039 0.56038-1.6381 0-0.94835-0.47417-1.5518-0.43107-0.60349-1.1208-0.90524-0.64661-0.34485-1.4656-0.43107-0.81903-0.12932-1.5518-0.12932-2.0691 0-3.4054 0.86213t-1.5087 2.6726h-4.9142q0.12932-2.1553 1.0346-3.5779t2.2846-2.2847q1.4225-0.86213 3.1899-1.207 1.7674-0.34485 3.621-0.34485 1.6381 0 3.233 0.34485t2.845 1.1208q1.2932 0.77592 2.0691 2.026 0.77592 1.207 0.77592 2.9744zm-4.9142-6.2074q-1.1208 0.73281-2.7588 0.90524-1.6381 0.12932-3.2761 0.43107-0.77592 0.12932-1.5087 0.38796-0.73281 0.21553-1.2932 0.6466-0.56038 0.38796-0.90524 1.0777-0.30175 0.6466-0.30175 1.5949 0 0.81903 0.47418 1.3794 0.47417 0.56039 1.1208 0.90524 0.68971 0.30175 1.4656 0.43107 0.81903 0.12932 1.4656 0.12932 0.81903 0 1.7674-0.21553 0.94835-0.21553 1.7674-0.73281 0.86213-0.51728 1.4225-1.2932 0.56039-0.81903 0.56039-1.9829z"/>
 </g>
 <g aria-label="Ressources naturelles Canada">
  <path d="m649.72 0.85281h14.699q5.0866 0 7.6299 2.1984t2.5433 6.1212q0 2.1984-0.6466 3.6641-0.6466 1.4225-1.5087 2.3278-0.86214 0.86213-1.7243 1.2501-0.81903 0.38796-1.207 0.51728v0.08621q0.68971 0.08621 1.4656 0.43107 0.81903 0.34485 1.5087 1.1208 0.6897 0.73281 1.1208 1.9398 0.47417 1.207 0.47417 3.0175 0 2.7157 0.38796 4.9573 0.43107 2.1984 1.2932 3.1468h-5.7763q-0.6035-0.99146-0.73282-2.1984-0.0862-1.207-0.0862-2.3278 0-2.1122-0.25864-3.621-0.25864-1.5518-0.94835-2.5433-0.68971-1.0346-1.8967-1.5087-1.1639-0.47417-3.0175-0.47417h-7.9316v12.673h-5.3883zm5.3883 14.01h8.8369q2.5864 0 3.9227-1.207 1.3363-1.2501 1.3363-3.7072 0-1.4656-0.43107-2.3709-0.43107-0.94835-1.207-1.4656-0.73281-0.51728-1.7243-0.68971-0.94834-0.17243-1.9829-0.17243h-8.7507z"/>
  <path d="m694.68 18.527q-0.0862-1.1639-0.51728-2.2415-0.38796-1.0777-1.1208-1.8536-0.68971-0.81903-1.7243-1.2932-0.99145-0.51728-2.2415-0.51728-1.2932 0-2.3709 0.47417-1.0346 0.43107-1.8105 1.2501-0.73282 0.77592-1.207 1.8536-0.43107 1.0777-0.47418 2.3278zm-11.466 3.233q0 1.2932 0.34486 2.5002 0.38796 1.207 1.1208 2.1122 0.73282 0.90524 1.8536 1.4656 1.1208 0.51728 2.6726 0.51728 2.1553 0 3.4485-0.90524 1.3363-0.94835 1.9829-2.8019h4.6555q-0.38796 1.8105-1.3363 3.233-0.94835 1.4225-2.2847 2.414-1.3363 0.94835-3.0175 1.4225-1.638 0.51728-3.4485 0.51728-2.6295 0-4.6555-0.86213t-3.4485-2.414q-1.3794-1.5518-2.1122-3.7072-0.68971-2.1553-0.68971-4.7417 0-2.3709 0.73281-4.4831 0.77592-2.1553 2.1553-3.7503 1.4225-1.6381 3.4054-2.5864 1.9829-0.94835 4.4831-0.94835 2.6295 0 4.6986 1.1208 2.1122 1.0777 3.4916 2.8881 1.3794 1.8105 1.9829 4.1814 0.6466 2.3278 0.34485 4.828z"/>
  <path d="m707.05 24.475q0.21553 2.1553 1.638 3.0175 1.4225 0.86213 3.4054 0.86213 0.68971 0 1.5518-0.08621 0.90525-0.12932 1.6812-0.43107t1.2501-0.86213q0.51728-0.60349 0.47417-1.5518-0.0431-0.94835-0.6897-1.5518-0.6466-0.60349-1.6812-0.94835-0.99146-0.38796-2.2847-0.6466-1.2932-0.25864-2.6295-0.56039-1.3794-0.30175-2.6726-0.73281-1.2501-0.43107-2.2847-1.1639-0.99145-0.73281-1.595-1.8536-0.60349-1.1639-0.60349-2.845 0-1.8105 0.86213-3.0175 0.90524-1.2501 2.2416-1.9829 1.3794-0.77592 3.0175-1.0777 1.6812-0.30175 3.1899-0.30175 1.7243 0 3.2761 0.38796 1.5949 0.34485 2.845 1.1639 1.2932 0.81903 2.1122 2.1553 0.86213 1.2932 1.0777 3.1468h-5.1297q-0.34486-1.7674-1.6381-2.3709-1.2501-0.60349-2.8882-0.60349-0.51728 0-1.2501 0.08621-0.68971 0.08621-1.3363 0.34485-0.60349 0.21553-1.0346 0.68971-0.43107 0.43107-0.43107 1.1639 0 0.90524 0.6035 1.4656 0.6466 0.56039 1.638 0.94835 1.0346 0.34485 2.3278 0.60349t2.6726 0.56039q1.3363 0.30175 2.6295 0.73281t2.2846 1.1639q1.0346 0.73281 1.6381 1.8536 0.6466 1.1208 0.6466 2.7588 0 1.9829-0.90524 3.3623t-2.3709 2.2415q-1.4225 0.86213-3.1899 1.2501-1.7674 0.38796-3.4916 0.38796-2.1122 0-3.9227-0.47417-1.7674-0.47417-3.1037-1.4225-1.2932-0.99146-2.0691-2.414-0.73282-1.4656-0.77592-3.4485z"/>
  <path d="m729.42 24.475q0.21553 2.1553 1.638 3.0175t3.4054 0.86213q0.68971 0 1.5518-0.08621 0.90524-0.12932 1.6812-0.43107t1.2501-0.86213q0.51728-0.60349 0.47417-1.5518-0.0431-0.94835-0.68971-1.5518-0.6466-0.60349-1.6812-0.94835-0.99145-0.38796-2.2846-0.6466-1.2932-0.25864-2.6295-0.56039-1.3794-0.30175-2.6726-0.73281-1.2501-0.43107-2.2846-1.1639-0.99146-0.73281-1.595-1.8536-0.60349-1.1639-0.60349-2.845 0-1.8105 0.86213-3.0175 0.90524-1.2501 2.2416-1.9829 1.3794-0.77592 3.0175-1.0777 1.6812-0.30175 3.1899-0.30175 1.7243 0 3.2761 0.38796 1.595 0.34485 2.845 1.1639 1.2932 0.81903 2.1122 2.1553 0.86214 1.2932 1.0777 3.1468h-5.1297q-0.34485-1.7674-1.638-2.3709-1.2501-0.60349-2.8882-0.60349-0.51728 0-1.2501 0.08621-0.68971 0.08621-1.3363 0.34485-0.6035 0.21553-1.0346 0.68971-0.43107 0.43107-0.43107 1.1639 0 0.90524 0.60349 1.4656 0.6466 0.56039 1.6381 0.94835 1.0346 0.34485 2.3278 0.60349t2.6726 0.56039q1.3363 0.30175 2.6295 0.73281 1.2932 0.43107 2.2846 1.1639 1.0346 0.73281 1.638 1.8536 0.64661 1.1208 0.64661 2.7588 0 1.9829-0.90525 3.3623-0.90524 1.3794-2.3709 2.2415-1.4225 0.86213-3.1899 1.2501t-3.4916 0.38796q-2.1122 0-3.9227-0.47417-1.7674-0.47417-3.1037-1.4225-1.2932-0.99146-2.0691-2.414-0.73281-1.4656-0.77592-3.4485z"/>
  <path d="m758.31 32.234q-2.6726 0-4.7848-0.86213-2.0691-0.90524-3.5348-2.4571-1.4225-1.5518-2.1984-3.7072-0.73281-2.1553-0.73281-4.7417 0-2.5433 0.73281-4.6986 0.77592-2.1553 2.1984-3.7072 1.4656-1.5518 3.5348-2.414 2.1122-0.90524 4.7848-0.90524t4.7417 0.90524q2.1122 0.86213 3.5348 2.414 1.4656 1.5518 2.1984 3.7072 0.77592 2.1553 0.77592 4.6986 0 2.5864-0.77592 4.7417-0.73281 2.1553-2.1984 3.7072-1.4225 1.5518-3.5348 2.4571-2.0691 0.86213-4.7417 0.86213zm0-3.8796q1.638 0 2.845-0.68971t1.9829-1.8105q0.77592-1.1208 1.1208-2.5002 0.38796-1.4225 0.38796-2.8881 0-1.4225-0.38796-2.845-0.34485-1.4225-1.1208-2.5002-0.77592-1.1208-1.9829-1.8105t-2.845-0.68971q-1.6381 0-2.845 0.68971-1.207 0.68971-1.9829 1.8105-0.77593 1.0777-1.1639 2.5002-0.34485 1.4225-0.34485 2.845 0 1.4656 0.34485 2.8881 0.38796 1.3794 1.1639 2.5002 0.77592 1.1208 1.9829 1.8105 1.207 0.68971 2.845 0.68971z"/>
  <path d="m793.22 31.631h-4.828v-3.1037h-0.0862q-0.90524 1.6812-2.7157 2.7157-1.7674 0.99145-3.621 0.99145-4.3969 0-6.3798-2.1553-1.9398-2.1984-1.9398-6.5953v-14.139h4.9142v13.665q0 2.9313 1.1208 4.1382 1.1208 1.207 3.1468 1.207 1.5518 0 2.5864-0.47417t1.6812-1.2501q0.6466-0.81903 0.90524-1.9398 0.30175-1.1208 0.30175-2.414v-12.932h4.9142z"/>
  <path d="m798.4 9.3448h4.6124v4.3107h0.0862q0.21553-0.90524 0.81903-1.7674 0.6466-0.86213 1.5087-1.5518 0.90524-0.73281 1.9829-1.1639 1.0777-0.43107 2.1984-0.43107 0.86214 0 1.1639 0.043107 0.34486 0.043107 0.68971 0.086213v4.7417q-0.51728-0.08621-1.0777-0.12932-0.51728-0.08621-1.0346-0.08621-1.2501 0-2.3709 0.51728-1.0777 0.47417-1.8967 1.4656-0.81903 0.94835-1.2932 2.3709-0.47418 1.4225-0.47418 3.2761v10.604h-4.9142z"/>
  <path d="m827.84 16.802q-0.30175-2.0691-1.6812-3.1037-1.3363-1.0777-3.4054-1.0777-0.94835 0-2.026 0.34485-1.0777 0.30175-1.9829 1.207-0.90524 0.86213-1.5087 2.4571-0.6035 1.5518-0.6035 4.0951 0 1.3794 0.30175 2.7588 0.34486 1.3794 1.0346 2.4571 0.73282 1.0777 1.8536 1.7674 1.1208 0.6466 2.7157 0.6466 2.1553 0 3.5348-1.3363 1.4225-1.3363 1.7674-3.7503h4.9142q-0.68971 4.3538-3.3192 6.6815-2.5864 2.2847-6.8971 2.2847-2.6295 0-4.6555-0.86213-1.9829-0.90524-3.3623-2.414-1.3794-1.5518-2.1122-3.6641-0.68971-2.1122-0.68971-4.5693 0-2.5002 0.68971-4.6986t2.0691-3.7934q1.3794-1.6381 3.4054-2.5433 2.0691-0.94835 4.828-0.94835 1.9398 0 3.6641 0.51728 1.7674 0.47417 3.1037 1.4656 1.3794 0.99145 2.2416 2.5002 0.86213 1.5087 1.0346 3.5779z"/>
  <path d="m852.06 18.527q-0.0862-1.1639-0.51728-2.2415-0.38796-1.0777-1.1208-1.8536-0.68971-0.81903-1.7243-1.2932-0.99145-0.51728-2.2416-0.51728-1.2932 0-2.3709 0.47417-1.0346 0.43107-1.8105 1.2501-0.73281 0.77592-1.207 1.8536-0.43106 1.0777-0.47417 2.3278zm-11.466 3.233q0 1.2932 0.34485 2.5002 0.38796 1.207 1.1208 2.1122 0.73281 0.90524 1.8536 1.4656 1.1208 0.51728 2.6726 0.51728 2.1553 0 3.4485-0.90524 1.3363-0.94835 1.9829-2.8019h4.6555q-0.38796 1.8105-1.3363 3.233t-2.2846 2.414q-1.3363 0.94835-3.0175 1.4225-1.6381 0.51728-3.4485 0.51728-2.6295 0-4.6555-0.86213t-3.4485-2.414q-1.3794-1.5518-2.1122-3.7072-0.6897-2.1553-0.6897-4.7417 0-2.3709 0.73281-4.4831 0.77592-2.1553 2.1553-3.7503 1.4225-1.6381 3.4054-2.5864 1.9829-0.94835 4.4831-0.94835 2.6295 0 4.6986 1.1208 2.1122 1.0777 3.4916 2.8881 1.3794 1.8105 1.9829 4.1814 0.6466 2.3278 0.34486 4.828z"/>
  <path d="m864.43 24.475q0.21553 2.1553 1.638 3.0175t3.4054 0.86213q0.68971 0 1.5518-0.08621 0.90524-0.12932 1.6812-0.43107t1.2501-0.86213q0.51728-0.60349 0.47417-1.5518-0.0431-0.94835-0.68971-1.5518-0.6466-0.60349-1.6812-0.94835-0.99145-0.38796-2.2846-0.6466-1.2932-0.25864-2.6295-0.56039-1.3794-0.30175-2.6726-0.73281-1.2501-0.43107-2.2846-1.1639-0.99146-0.73281-1.595-1.8536-0.60349-1.1639-0.60349-2.845 0-1.8105 0.86213-3.0175 0.90524-1.2501 2.2416-1.9829 1.3794-0.77592 3.0175-1.0777 1.6812-0.30175 3.1899-0.30175 1.7243 0 3.2761 0.38796 1.595 0.34485 2.845 1.1639 1.2932 0.81903 2.1122 2.1553 0.86214 1.2932 1.0777 3.1468h-5.1297q-0.34485-1.7674-1.638-2.3709-1.2501-0.60349-2.8882-0.60349-0.51728 0-1.2501 0.08621-0.68971 0.08621-1.3363 0.34485-0.6035 0.21553-1.0346 0.68971-0.43107 0.43107-0.43107 1.1639 0 0.90524 0.60349 1.4656 0.6466 0.56039 1.6381 0.94835 1.0346 0.34485 2.3278 0.60349t2.6726 0.56039q1.3363 0.30175 2.6295 0.73281t2.2847 1.1639q1.0346 0.73281 1.638 1.8536 0.6466 1.1208 0.6466 2.7588 0 1.9829-0.90524 3.3623t-2.3709 2.2415q-1.4225 0.86213-3.1899 1.2501-1.7674 0.38796-3.4916 0.38796-2.1122 0-3.9227-0.47417-1.7674-0.47417-3.1037-1.4225-1.2932-0.99146-2.0691-2.414-0.73281-1.4656-0.77592-3.4485z"/>
  <path d="m895.08 9.3448h4.6555v3.2761l0.0862 0.08621q1.1208-1.8536 2.9313-2.8881 1.8105-1.0777 4.0089-1.0777 3.6641 0 5.7763 1.8967t2.1122 5.6901v15.303h-4.9142v-14.01q-0.0862-2.6295-1.1208-3.7934-1.0346-1.207-3.233-1.207-1.2501 0-2.2416 0.47417-0.99145 0.43107-1.6812 1.2501-0.68971 0.77592-1.0777 1.8536-0.38796 1.0777-0.38796 2.2847v13.148h-4.9142z"/>
  <path d="m938.49 26.674q0 0.90524 0.21554 1.2932 0.25864 0.38796 0.94834 0.38796 0.21554 0 0.51728 0 0.30175 0 0.68971-0.08621v3.4054q-0.25864 0.08621-0.68971 0.17243-0.38796 0.12932-0.81902 0.21553-0.43107 0.08621-0.86214 0.12932-0.43106 0.04311-0.73281 0.04311-1.5087 0-2.5002-0.60349-0.99145-0.60349-1.2932-2.1122-1.4656 1.4225-3.621 2.0691-2.1122 0.6466-4.0951 0.6466-1.5087 0-2.8882-0.43107-1.3794-0.38796-2.4571-1.1639-1.0346-0.81903-1.6812-2.026-0.6035-1.2501-0.6035-2.8881 0-2.0691 0.73282-3.3623 0.77592-1.2932 1.9829-2.026 1.2501-0.73281 2.7588-1.0346 1.5518-0.34485 3.1037-0.51728 1.3363-0.25864 2.5433-0.34485 1.207-0.12932 2.1122-0.38796 0.94835-0.25864 1.4656-0.77592 0.56039-0.56039 0.56039-1.6381 0-0.94835-0.47418-1.5518-0.43106-0.60349-1.1208-0.90524-0.6466-0.34485-1.4656-0.43107-0.81903-0.12932-1.5518-0.12932-2.0691 0-3.4054 0.86213t-1.5087 2.6726h-4.9142q0.12932-2.1553 1.0346-3.5779t2.2847-2.2847q1.4225-0.86213 3.1899-1.207 1.7674-0.34485 3.621-0.34485 1.638 0 3.233 0.34485t2.845 1.1208q1.2932 0.77592 2.0691 2.026 0.77592 1.207 0.77592 2.9744zm-4.9142-6.2074q-1.1208 0.73281-2.7588 0.90524-1.638 0.12932-3.2761 0.43107-0.77592 0.12932-1.5087 0.38796-0.73282 0.21553-1.2932 0.6466-0.56039 0.38796-0.90524 1.0777-0.30175 0.6466-0.30175 1.5949 0 0.81903 0.47417 1.3794 0.47418 0.56039 1.1208 0.90524 0.6897 0.30175 1.4656 0.43107 0.81903 0.12932 1.4656 0.12932 0.81903 0 1.7674-0.21553 0.94834-0.21553 1.7674-0.73281 0.86214-0.51728 1.4225-1.2932 0.56039-0.81903 0.56039-1.9829z"/>
  <path d="m941.55 9.3448h3.7072v-6.6815h4.9142v6.6815h4.44v3.6641h-4.44v11.897q0 0.77592 0.0431 1.3363 0.0862 0.56039 0.30174 0.94835 0.25864 0.38796 0.73282 0.60349 0.47417 0.17243 1.2932 0.17243 0.51728 0 1.0346 0 0.51728-0.04311 1.0346-0.17243v3.7934q-0.81903 0.08621-1.595 0.17243-0.77592 0.08621-1.595 0.08621-1.9398 0-3.1468-0.34485-1.1639-0.38796-1.8536-1.0777-0.6466-0.73281-0.90524-1.8105-0.21554-1.0777-0.25864-2.4571v-13.148h-3.7072z"/>
  <path d="m977.72 31.631h-4.828v-3.1037h-0.0862q-0.90524 1.6812-2.7157 2.7157-1.7674 0.99145-3.621 0.99145-4.3969 0-6.3798-2.1553-1.9398-2.1984-1.9398-6.5953v-14.139h4.9142v13.665q0 2.9313 1.1208 4.1382 1.1208 1.207 3.1468 1.207 1.5518 0 2.5864-0.47417t1.6812-1.2501q0.6466-0.81903 0.90524-1.9398 0.30175-1.1208 0.30175-2.414v-12.932h4.9142z"/>
  <path d="m982.89 9.3448h4.6124v4.3107h0.0862q0.21553-0.90524 0.81902-1.7674 0.6466-0.86213 1.5087-1.5518 0.90524-0.73281 1.9829-1.1639 1.0777-0.43107 2.1984-0.43107 0.86213 0 1.1639 0.043107 0.34485 0.043107 0.68971 0.086213v4.7417q-0.51728-0.08621-1.0777-0.12932-0.51728-0.08621-1.0346-0.08621-1.2501 0-2.3709 0.51728-1.0777 0.47417-1.8967 1.4656-0.81902 0.94835-1.2932 2.3709-0.47417 1.4225-0.47417 3.2761v10.604h-4.9142z"/>
  <path d="m1012.6 18.527q-0.086-1.1639-0.5173-2.2415-0.388-1.0777-1.1208-1.8536-0.6897-0.81903-1.7243-1.2932-0.9914-0.51728-2.2415-0.51728-1.2932 0-2.3709 0.47417-1.0345 0.43107-1.8105 1.2501-0.7328 0.77592-1.207 1.8536-0.431 1.0777-0.4741 2.3278zm-11.466 3.233q0 1.2932 0.3448 2.5002 0.388 1.207 1.1208 2.1122t1.8536 1.4656q1.1208 0.51728 2.6726 0.51728 2.1553 0 3.4485-0.90524 1.3364-0.94835 1.983-2.8019h4.6555q-0.388 1.8105-1.3363 3.233-0.9484 1.4225-2.2847 2.414-1.3363 0.94835-3.0175 1.4225-1.638 0.51728-3.4485 0.51728-2.6295 0-4.6555-0.86213t-3.4486-2.414q-1.3794-1.5518-2.1122-3.7072-0.68971-2.1553-0.68971-4.7417 0-2.3709 0.73282-4.4831 0.77592-2.1553 2.1553-3.7503 1.4225-1.6381 3.4054-2.5864 1.9829-0.94835 4.4831-0.94835 2.6295 0 4.6986 1.1208 2.1122 1.0777 3.4917 2.8881 1.3794 1.8105 1.9829 4.1814 0.6466 2.3278 0.3448 4.828z"/>
  <path d="m1021.4 0.85281h4.9142v30.778h-4.9142z"/>
  <path d="m1031.8 0.85281h4.9142v30.778h-4.9142z"/>
  <path d="m1057.3 18.527q-0.086-1.1639-0.5173-2.2415-0.3879-1.0777-1.1207-1.8536-0.6897-0.81903-1.7243-1.2932-0.9915-0.51728-2.2416-0.51728-1.2932 0-2.3708 0.47417-1.0346 0.43107-1.8105 1.2501-0.7328 0.77592-1.207 1.8536-0.4311 1.0777-0.4742 2.3278zm-11.466 3.233q0 1.2932 0.3449 2.5002 0.3879 1.207 1.1208 2.1122 0.7328 0.90524 1.8536 1.4656 1.1207 0.51728 2.6726 0.51728 2.1553 0 3.4485-0.90524 1.3363-0.94835 1.9829-2.8019h4.6555q-0.3879 1.8105-1.3363 3.233-0.9483 1.4225-2.2846 2.414-1.3363 0.94835-3.0175 1.4225-1.6381 0.51728-3.4485 0.51728-2.6295 0-4.6556-0.86213-2.026-0.86213-3.4485-2.414-1.3794-1.5518-2.1122-3.7072-0.6897-2.1553-0.6897-4.7417 0-2.3709 0.7328-4.4831 0.7759-2.1553 2.1553-3.7503 1.4225-1.6381 3.4054-2.5864 1.983-0.94835 4.4831-0.94835 2.6296 0 4.6987 1.1208 2.1122 1.0777 3.4916 2.8881 1.3794 1.8105 1.9829 4.1814 0.6466 2.3278 0.3449 4.828z"/>
  <path d="m1069.7 24.475q0.2156 2.1553 1.6381 3.0175t3.4054 0.86213q0.6897 0 1.5519-0.08621 0.9052-0.12932 1.6811-0.43107t1.2501-0.86213q0.5173-0.60349 0.4742-1.5518-0.043-0.94835-0.6897-1.5518-0.6466-0.60349-1.6812-0.94835-0.9914-0.38796-2.2846-0.6466t-2.6295-0.56039q-1.3795-0.30175-2.6727-0.73281-1.2501-0.43107-2.2846-1.1639-0.9915-0.73281-1.595-1.8536-0.6035-1.1639-0.6035-2.845 0-1.8105 0.8622-3.0175 0.9052-1.2501 2.2415-1.9829 1.3794-0.77592 3.0175-1.0777 1.6812-0.30175 3.1899-0.30175 1.7243 0 3.2761 0.38796 1.5949 0.34485 2.845 1.1639 1.2932 0.81903 2.1123 2.1553 0.8621 1.2932 1.0776 3.1468h-5.1297q-0.3448-1.7674-1.638-2.3709-1.2501-0.60349-2.8882-0.60349-0.5172 0-1.2501 0.08621-0.6897 0.08621-1.3363 0.34485-0.6035 0.21553-1.0345 0.68971-0.4311 0.43107-0.4311 1.1639 0 0.90524 0.6035 1.4656 0.6466 0.56039 1.6381 0.94835 1.0345 0.34485 2.3277 0.60349t2.6726 0.56039q1.3363 0.30175 2.6295 0.73281t2.2847 1.1639q1.0346 0.73281 1.638 1.8536 0.6466 1.1208 0.6466 2.7588 0 1.9829-0.9052 3.3623t-2.3709 2.2415q-1.4225 0.86213-3.1899 1.2501-1.7673 0.38796-3.4916 0.38796-2.1122 0-3.9227-0.47417-1.7674-0.47417-3.1037-1.4225-1.2932-0.99146-2.0691-2.414-0.7328-1.4656-0.7759-3.4485z"/>
  <path d="m670.5 53.877q-0.34486-1.3363-0.94835-2.4571t-1.5518-1.9398q-0.94835-0.81903-2.2416-1.2501-1.2501-0.47417-2.9313-0.47417-2.4571 0-4.2676 0.99145-1.7674 0.99145-2.8882 2.6726-1.1208 1.6381-1.6812 3.7503-0.51728 2.1122-0.51728 4.3107t0.51728 4.3107q0.56039 2.1122 1.6812 3.7934 1.1208 1.6381 2.8882 2.6295 1.8105 0.99146 4.2676 0.99146 1.8105 0 3.1899-0.60349 1.3794-0.6466 2.3709-1.7243 0.99145-1.1208 1.5518-2.5864 0.56039-1.4656 0.73281-3.1468h5.259q-0.17243 2.7588-1.207 5.0435-0.99145 2.2847-2.7157 3.9658-1.7243 1.6381-4.052 2.5433-2.3278 0.90524-5.1297 0.90524-3.4485 0-6.2074-1.2501-2.7157-1.2932-4.6124-3.4916t-2.9312-5.1297q-0.99146-2.9313-0.99146-6.2505 0-3.2761 0.99146-6.2074 1.0346-2.9313 2.9312-5.1297 1.8967-2.1984 4.6124-3.4916 2.7588-1.2932 6.2074-1.2932 2.5864 0 4.8711 0.73281 2.2847 0.68971 4.0089 2.0691 1.7674 1.3363 2.845 3.2761 1.0777 1.9398 1.3363 4.44z"/>
  <path d="m698.82 69.913q0 0.90524 0.21554 1.2932 0.25864 0.38796 0.94835 0.38796 0.21553 0 0.51728 0 0.30174 0 0.6897-0.08621v3.4054q-0.25864 0.08621-0.6897 0.17243-0.38796 0.12932-0.81903 0.21553t-0.86214 0.12932q-0.43106 0.04311-0.73281 0.04311-1.5087 0-2.5002-0.60349-0.99145-0.60349-1.2932-2.1122-1.4656 1.4225-3.621 2.0691-2.1122 0.6466-4.0951 0.6466-1.5087 0-2.8882-0.43107-1.3794-0.38796-2.4571-1.1639-1.0346-0.81903-1.6812-2.026-0.60349-1.2501-0.60349-2.8881 0-2.0691 0.73281-3.3623 0.77592-1.2932 1.9829-2.026 1.2501-0.73281 2.7588-1.0346 1.5518-0.34485 3.1037-0.51728 1.3363-0.25864 2.5433-0.34485 1.207-0.12932 2.1122-0.38796 0.94835-0.25864 1.4656-0.77592 0.56039-0.56039 0.56039-1.6381 0-0.94835-0.47418-1.5518-0.43106-0.60349-1.1208-0.90524-0.6466-0.34485-1.4656-0.43107-0.81903-0.12932-1.5518-0.12932-2.0691 0-3.4054 0.86213t-1.5087 2.6726h-4.9142q0.12932-2.1553 1.0346-3.5779t2.2847-2.2847q1.4225-0.86213 3.1899-1.207 1.7674-0.34485 3.621-0.34485 1.638 0 3.233 0.34485t2.845 1.1208q1.2932 0.77592 2.0691 2.026 0.77592 1.207 0.77592 2.9744zm-4.9142-6.2074q-1.1208 0.73281-2.7588 0.90524-1.638 0.12932-3.2761 0.43107-0.77592 0.12932-1.5087 0.38796-0.73282 0.21553-1.2932 0.6466-0.56039 0.38796-0.90524 1.0777-0.30175 0.6466-0.30175 1.5949 0 0.81903 0.47417 1.3794 0.47418 0.56039 1.1208 0.90524 0.6897 0.30175 1.4656 0.43107 0.81902 0.12932 1.4656 0.12932 0.81903 0 1.7674-0.21553 0.94835-0.21553 1.7674-0.73281 0.86214-0.51728 1.4225-1.2932 0.56039-0.81903 0.56039-1.9829z"/>
  <path d="m704.12 52.584h4.6555v3.2761l0.0862 0.08621q1.1208-1.8536 2.9312-2.8881 1.8105-1.0777 4.0089-1.0777 3.6641 0 5.7763 1.8967t2.1122 5.6901v15.303h-4.9141v-14.01q-0.0862-2.6295-1.1208-3.7934-1.0346-1.207-3.233-1.207-1.2501 0-2.2416 0.47417-0.99145 0.43107-1.6812 1.2501-0.68971 0.77592-1.0777 1.8536-0.38796 1.0777-0.38796 2.2847v13.148h-4.9142z"/>
  <path d="m747.53 69.913q0 0.90524 0.21554 1.2932 0.25864 0.38796 0.94834 0.38796 0.21554 0 0.51728 0 0.30175 0 0.68971-0.08621v3.4054q-0.25864 0.08621-0.68971 0.17243-0.38796 0.12932-0.81902 0.21553-0.43107 0.08621-0.86214 0.12932t-0.73281 0.04311q-1.5087 0-2.5002-0.60349-0.99146-0.60349-1.2932-2.1122-1.4656 1.4225-3.621 2.0691-2.1122 0.6466-4.0951 0.6466-1.5087 0-2.8882-0.43107-1.3794-0.38796-2.4571-1.1639-1.0346-0.81903-1.6812-2.026-0.6035-1.2501-0.6035-2.8881 0-2.0691 0.73282-3.3623 0.77592-1.2932 1.9829-2.026 1.2501-0.73281 2.7588-1.0346 1.5518-0.34485 3.1037-0.51728 1.3363-0.25864 2.5433-0.34485 1.207-0.12932 2.1122-0.38796 0.94835-0.25864 1.4656-0.77592 0.56038-0.56039 0.56038-1.6381 0-0.94835-0.47417-1.5518-0.43107-0.60349-1.1208-0.90524-0.6466-0.34485-1.4656-0.43107-0.81903-0.12932-1.5518-0.12932-2.0691 0-3.4054 0.86213t-1.5087 2.6726h-4.9142q0.12932-2.1553 1.0346-3.5779t2.2847-2.2847q1.4225-0.86213 3.1899-1.207 1.7674-0.34485 3.621-0.34485 1.6381 0 3.233 0.34485t2.845 1.1208q1.2932 0.77592 2.0691 2.026 0.77592 1.207 0.77592 2.9744zm-4.9142-6.2074q-1.1208 0.73281-2.7588 0.90524-1.6381 0.12932-3.2761 0.43107-0.77592 0.12932-1.5087 0.38796-0.73282 0.21553-1.2932 0.6466-0.56038 0.38796-0.90524 1.0777-0.30174 0.6466-0.30174 1.5949 0 0.81903 0.47417 1.3794t1.1208 0.90524q0.68971 0.30175 1.4656 0.43107 0.81903 0.12932 1.4656 0.12932 0.81903 0 1.7674-0.21553 0.94835-0.21553 1.7674-0.73281 0.86213-0.51728 1.4225-1.2932 0.56039-0.81903 0.56039-1.9829z"/>
  <path d="m773.82 74.87h-4.6555v-3.0175h-0.0862q-0.99145 1.9398-2.8882 2.8019-1.8967 0.81903-4.0089 0.81903-2.6295 0-4.6124-0.90524-1.9398-0.94835-3.233-2.5433t-1.9398-3.7503q-0.6466-2.1984-0.6466-4.6986 0-3.0175 0.81903-5.2159 0.81902-2.1984 2.1553-3.621 1.3794-1.4225 3.1037-2.0691 1.7674-0.68971 3.5779-0.68971 1.0346 0 2.1122 0.21553 1.0777 0.17243 2.0691 0.60349t1.8105 1.1208q0.86213 0.6466 1.4225 1.5518h0.0862v-11.38h4.9142zm-17.156-10.906q0 1.4225 0.34486 2.8019 0.38796 1.3794 1.1208 2.4571 0.77592 1.0777 1.9398 1.7243 1.1639 0.6466 2.7588 0.6466 1.638 0 2.8019-0.68971 1.207-0.68971 1.9398-1.8105 0.77592-1.1208 1.1208-2.5002 0.38796-1.4225 0.38796-2.8881 0-3.7072-1.6812-5.7763-1.638-2.0691-4.4831-2.0691-1.7243 0-2.9312 0.73281-1.1639 0.68971-1.9398 1.8536-0.73282 1.1208-1.0777 2.5864-0.30175 1.4225-0.30175 2.9313z"/>
  <path d="m797.84 69.913q0 0.90524 0.21553 1.2932 0.25864 0.38796 0.94835 0.38796 0.21554 0 0.51728 0 0.30175 0 0.68971-0.08621v3.4054q-0.25864 0.08621-0.68971 0.17243-0.38796 0.12932-0.81903 0.21553-0.43106 0.08621-0.86213 0.12932t-0.73281 0.04311q-1.5087 0-2.5002-0.60349-0.99146-0.60349-1.2932-2.1122-1.4656 1.4225-3.621 2.0691-2.1122 0.6466-4.0951 0.6466-1.5087 0-2.8882-0.43107-1.3794-0.38796-2.4571-1.1639-1.0346-0.81903-1.6812-2.026-0.6035-1.2501-0.6035-2.8881 0-2.0691 0.73282-3.3623 0.77592-1.2932 1.9829-2.026 1.2501-0.73281 2.7588-1.0346 1.5518-0.34485 3.1037-0.51728 1.3363-0.25864 2.5433-0.34485 1.207-0.12932 2.1122-0.38796 0.94835-0.25864 1.4656-0.77592 0.56038-0.56039 0.56038-1.6381 0-0.94835-0.47417-1.5518-0.43107-0.60349-1.1208-0.90524-0.6466-0.34485-1.4656-0.43107-0.81903-0.12932-1.5518-0.12932-2.0691 0-3.4054 0.86213t-1.5087 2.6726h-4.9142q0.12932-2.1553 1.0346-3.5779t2.2846-2.2847q1.4225-0.86213 3.1899-1.207 1.7674-0.34485 3.621-0.34485 1.6381 0 3.233 0.34485t2.845 1.1208q1.2932 0.77592 2.0691 2.026 0.77592 1.207 0.77592 2.9744zm-4.9142-6.2074q-1.1208 0.73281-2.7588 0.90524-1.6381 0.12932-3.2761 0.43107-0.77592 0.12932-1.5087 0.38796-0.73281 0.21553-1.2932 0.6466-0.56038 0.38796-0.90524 1.0777-0.30174 0.6466-0.30174 1.5949 0 0.81903 0.47417 1.3794t1.1208 0.90524q0.68971 0.30175 1.4656 0.43107 0.81903 0.12932 1.4656 0.12932 0.81903 0 1.7674-0.21553 0.94835-0.21553 1.7674-0.73281 0.86213-0.51728 1.4225-1.2932 0.56039-0.81903 0.56039-1.9829z"/>
 </g>
</svg>
